#N canvas 38 38 1920 1016 12;
#X obj 432 331 f;
#X obj 466 331 + 1;
#X obj 432 251 bng 19 250 50 0 empty empty GO! 0 -10 0 12 #e3c6ff #000000 #000000;
#X obj 432 355 % 4;
#X obj 432 379 sel 0 1 2 3;
#X msg 346 476 60;
#X msg 407 478 63;
#X msg 459 480 67;
#X msg 521 476 72;
#X obj 459 523 mtof;
#X obj 459 602 moocow/any2bytes;
#X obj 459 626 cyclone/zl ecils 1;
#X obj 459 650 cyclone/append 32 13;
#X obj 358 765 print;
#X msg 242 643 devices;
#X msg 379 643 close;
#X obj 459 547 expr ($f1-36.0)*(804.0/12.0)+5.0;
#X obj 796 289 line;
#X msg 796 155 1 4;
#X obj 836 155 del 4;
#X msg 836 179 0 200;
#X obj 832 72 bng 19 250 50 0 empty empty empty 0 -10 0 12 #fcfcfc #000000 #000000;
#X floatatom 796 361 5 0 0 0 - - - 0;
#X obj 432 307 metro 400;
#X obj 1148 99 osc~ 0.1;
#X obj 1291 95 metro 10;
#X obj 1148 123 snapshot~;
#X obj 1287 39 bng 19 250 50 0 empty empty empty 0 -10 0 12 #fcfcfc #000000 #000000;
#X floatatom 1148 147 5 0 0 0 - - - 0;
#X obj 1148 170 + 1;
#X floatatom 1148 194 5 0 0 0 - - - 0;
#X floatatom 1148 241 5 0 0 0 - - - 0;
#X obj 1148 217 / 2;
#X obj 1148 264 * 4095;
#X obj 796 313 * 4095;
#X obj 796 337 + 4095;
#X floatatom 1148 288 5 0 0 0 - - - 0;
#X obj 1148 311 + 8192;
#X floatatom 1148 335 16 0 0 0 - - - 0;
#X obj 1572 560 line;
#X msg 1572 426 1 4;
#X obj 1612 426 del 4;
#X msg 1612 450 0 200;
#X obj 1608 339 bng 19 250 50 0 empty empty empty 0 -10 0 12 #fcfcfc #000000 #000000;
#X floatatom 1572 632 5 0 0 0 - - - 0;
#X obj 1572 584 * 4095;
#X obj 1572 608 + 12288;
#X obj 1599 170 f;
#X obj 1633 170 + 1;
#X obj 1599 218 sel 0;
#X obj 1599 194 % 3;
#X text 390 548 0 - 4095;
#X text 839 361 4095 - 8192;
#X text 1052 335 8192 - 12288;
#X text 1617 635 1288 +;
#X obj 358 741 comport 6 115200;
#X obj 564 351 bng 19 250 50 0 empty empty empty 0 -10 0 12 #fcfcfc #000000 #000000;
#X floatatom 564 375 5 0 0 0 - - - 0;
#X floatatom 612 578 5 0 0 0 - - - 0;
#X msg 310 643 open 6;
#X connect 0 0 1 0;
#X connect 0 0 3 0;
#X connect 1 0 0 1;
#X connect 2 0 23 0;
#X connect 2 0 27 0;
#X connect 3 0 4 0;
#X connect 3 0 57 0;
#X connect 4 0 5 0;
#X connect 4 1 6 0;
#X connect 4 2 7 0;
#X connect 4 3 8 0;
#X connect 5 0 9 0;
#X connect 6 0 9 0;
#X connect 7 0 9 0;
#X connect 8 0 9 0;
#X connect 9 0 16 0;
#X connect 10 0 11 0;
#X connect 11 0 12 0;
#X connect 12 0 55 0;
#X connect 14 0 55 0;
#X connect 15 0 55 0;
#X connect 16 0 10 0;
#X connect 16 0 58 0;
#X connect 17 0 34 0;
#X connect 18 0 17 0;
#X connect 19 0 20 0;
#X connect 20 0 17 0;
#X connect 21 0 18 0;
#X connect 21 0 19 0;
#X connect 21 0 47 0;
#X connect 22 0 10 0;
#X connect 23 0 0 0;
#X connect 23 0 21 0;
#X connect 24 0 26 0;
#X connect 25 0 26 0;
#X connect 26 0 28 0;
#X connect 27 0 25 0;
#X connect 28 0 29 0;
#X connect 29 0 30 0;
#X connect 30 0 32 0;
#X connect 31 0 33 0;
#X connect 32 0 31 0;
#X connect 33 0 36 0;
#X connect 34 0 35 0;
#X connect 35 0 22 0;
#X connect 36 0 37 0;
#X connect 37 0 38 0;
#X connect 38 0 10 0;
#X connect 39 0 45 0;
#X connect 40 0 39 0;
#X connect 41 0 42 0;
#X connect 42 0 39 0;
#X connect 43 0 40 0;
#X connect 43 0 41 0;
#X connect 44 0 10 0;
#X connect 45 0 46 0;
#X connect 46 0 44 0;
#X connect 47 0 48 0;
#X connect 47 0 50 0;
#X connect 48 0 47 1;
#X connect 49 0 43 0;
#X connect 50 0 49 0;
#X connect 55 0 13 0;
#X connect 56 0 57 0;
#X connect 59 0 55 0;
